<svg width="140" height="40" viewBox="0 0 140 40" fill="none" xmlns="http://www.w3.org/2000/svg">
<path d="M134.594 40H5.40613C2.42344 40 0 37.7226 0 34.9197V5.08029C0 2.27737 2.42344 0 5.40613 0H134.594C137.577 0 140 2.27737 140 5.08029V34.9197C140 37.7226 137.577 40 134.594 40Z" fill="url(#paint0_linear)"/>
<path d="M11.1366 17.5584C8.86461 21.3757 10.2963 27.1468 12.8172 30.6636C14.0621 32.4069 15.3381 34 17.081 34C17.1121 34 17.1432 34 17.1744 34C18.0147 33.9398 18.606 33.6994 19.1662 33.4589C19.8198 33.1884 20.4734 32.9179 21.5004 32.9179C22.4964 32.9179 23.1188 33.1884 23.7413 33.4289C24.3326 33.6693 24.955 33.9398 25.8887 33.9098C27.8495 33.8797 29.0632 32.1664 30.1214 30.6636C31.2418 29.1006 31.802 27.5676 31.9888 26.9965V26.9665C32.0199 26.8763 31.9888 26.7561 31.8643 26.6959C31.8643 26.6959 31.8643 26.6959 31.8332 26.6959C31.4908 26.5457 28.4719 25.2532 28.4408 21.7364C28.4097 18.8509 30.7127 17.348 31.1796 17.0775H31.2107C31.273 17.0474 31.3041 16.9873 31.3041 16.9272C31.3041 16.8671 31.3041 16.807 31.273 16.7769C29.6857 14.5226 27.2581 14.192 26.2622 14.1619C26.1066 14.1619 25.9821 14.1318 25.8265 14.1318C24.6749 14.1318 23.5856 14.5526 22.6831 14.8833C22.0606 15.1237 21.5315 15.3041 21.1892 15.3041C20.7846 15.3041 20.2555 15.0937 19.6331 14.8532C18.8239 14.5226 17.8902 14.192 16.8943 14.192C16.8631 14.192 16.8631 14.192 16.832 14.192C14.4978 14.2821 12.3192 15.5445 11.1366 17.5584Z" fill="white"/>
<path d="M25.2625 8C23.862 8.06012 22.2125 8.87167 21.2165 10.0139C20.3762 10.9757 19.5359 12.5387 19.7538 14.1318C19.7538 14.2219 19.8471 14.3121 19.9405 14.3121C20.0339 14.3121 20.1272 14.3121 20.2206 14.3121C21.59 14.3121 23.0528 13.5907 24.0487 12.4185C25.1069 11.1861 25.636 9.59306 25.4803 8.18035C25.4492 8.06012 25.3559 8 25.2625 8Z" fill="white"/>
<path d="M43.1474 7.41664H45.7525C46.4359 7.41664 47.041 7.55771 47.5676 7.83986C48.1006 8.122 48.5144 8.51387 48.8091 9.01546C49.1038 9.51077 49.2511 10.0751 49.2511 10.7083C49.2511 11.3416 49.1038 11.909 48.8091 12.4106C48.5144 12.9059 48.1006 13.2946 47.5676 13.5768C47.041 13.8589 46.4359 14 45.7525 14H43.1474V7.41664ZM45.7149 13.5674C46.3231 13.5674 46.8591 13.4483 47.3231 13.21C47.7871 12.9655 48.1445 12.6269 48.3953 12.1943C48.6461 11.7617 48.7715 11.2663 48.7715 10.7083C48.7715 10.1503 48.6461 9.65498 48.3953 9.22236C48.1445 8.78974 47.7871 8.4543 47.3231 8.21605C46.8591 7.97152 46.3231 7.84926 45.7149 7.84926H43.627V13.5674H45.7149ZM52.6855 14.0376C52.2215 14.0376 51.8014 13.931 51.4252 13.7179C51.0553 13.5047 50.7638 13.21 50.5506 12.8338C50.3374 12.4513 50.2308 12.0219 50.2308 11.5453C50.2308 11.0688 50.3374 10.6425 50.5506 10.2663C50.7638 9.88383 51.0553 9.58601 51.4252 9.37284C51.8014 9.15966 52.2215 9.05307 52.6855 9.05307C53.1494 9.05307 53.5664 9.15966 53.9363 9.37284C54.3125 9.58601 54.6072 9.88383 54.8204 10.2663C55.0335 10.6425 55.1401 11.0688 55.1401 11.5453C55.1401 12.0219 55.0335 12.4513 54.8204 12.8338C54.6072 13.21 54.3125 13.5047 53.9363 13.7179C53.5664 13.931 53.1494 14.0376 52.6855 14.0376ZM52.6855 13.6144C53.0617 13.6144 53.3971 13.5266 53.6918 13.3511C53.9927 13.1755 54.2279 12.931 54.3971 12.6175C54.5727 12.304 54.6605 11.9466 54.6605 11.5453C54.6605 11.1441 54.5727 10.7867 54.3971 10.4732C54.2279 10.1597 53.9927 9.91518 53.6918 9.73963C53.3971 9.56407 53.0617 9.47629 52.6855 9.47629C52.3093 9.47629 51.9707 9.56407 51.6698 9.73963C51.3751 9.91518 51.1399 10.1597 50.9644 10.4732C50.7951 10.7867 50.7105 11.1441 50.7105 11.5453C50.7105 11.9466 50.7951 12.304 50.9644 12.6175C51.1399 12.931 51.3751 13.1755 51.6698 13.3511C51.9707 13.5266 52.3093 13.6144 52.6855 13.6144ZM63.4772 9.09069L61.615 14H61.173L59.5178 9.73963L57.8531 14H57.4205L55.5583 9.09069H56.0098L57.6462 13.4733L59.3203 9.09069H59.7247L61.3893 13.4639L63.0446 9.09069H63.4772ZM66.9692 9.05307C67.5837 9.05307 68.0696 9.23177 68.427 9.58915C68.7844 9.94653 68.963 10.4607 68.963 11.1315V14H68.4928V11.1692C68.4928 10.6174 68.3517 10.1973 68.0696 9.90891C67.7937 9.6205 67.405 9.47629 66.9034 9.47629C66.3266 9.47629 65.872 9.64871 65.5397 9.99355C65.2074 10.3384 65.0412 10.8024 65.0412 11.3855V14H64.571V9.09069H65.0224V10.1534C65.1917 9.80859 65.4425 9.53899 65.7748 9.34462C66.1134 9.15026 66.5115 9.05307 66.9692 9.05307ZM70.899 7.02164H71.3693V14H70.899V7.02164ZM75.2698 14.0376C74.8059 14.0376 74.3858 13.931 74.0096 13.7179C73.6397 13.5047 73.3481 13.21 73.135 12.8338C72.9218 12.4513 72.8152 12.0219 72.8152 11.5453C72.8152 11.0688 72.9218 10.6425 73.135 10.2663C73.3481 9.88383 73.6397 9.58601 74.0096 9.37284C74.3858 9.15966 74.8059 9.05307 75.2698 9.05307C75.7338 9.05307 76.1508 9.15966 76.5207 9.37284C76.8969 9.58601 77.1916 9.88383 77.4047 10.2663C77.6179 10.6425 77.7245 11.0688 77.7245 11.5453C77.7245 12.0219 77.6179 12.4513 77.4047 12.8338C77.1916 13.21 76.8969 13.5047 76.5207 13.7179C76.1508 13.931 75.7338 14.0376 75.2698 14.0376ZM75.2698 13.6144C75.646 13.6144 75.9815 13.5266 76.2762 13.3511C76.5771 13.1755 76.8122 12.931 76.9815 12.6175C77.1571 12.304 77.2449 11.9466 77.2449 11.5453C77.2449 11.1441 77.1571 10.7867 76.9815 10.4732C76.8122 10.1597 76.5771 9.91518 76.2762 9.73963C75.9815 9.56407 75.646 9.47629 75.2698 9.47629C74.8937 9.47629 74.5551 9.56407 74.2541 9.73963C73.9594 9.91518 73.7243 10.1597 73.5488 10.4732C73.3795 10.7867 73.2948 11.1441 73.2948 11.5453C73.2948 11.9466 73.3795 12.304 73.5488 12.6175C73.7243 12.931 73.9594 13.1755 74.2541 13.3511C74.5551 13.5266 74.8937 13.6144 75.2698 13.6144ZM80.8202 9.05307C81.4284 9.05307 81.8955 9.20982 82.2215 9.52331C82.5476 9.83054 82.7106 10.2851 82.7106 10.887V14H82.2592V13.1254C82.1024 13.4138 81.8736 13.6395 81.5726 13.8025C81.2717 13.9592 80.9111 14.0376 80.4911 14.0376C79.9456 14.0376 79.513 13.9091 79.1932 13.652C78.8797 13.395 78.723 13.0564 78.723 12.6363C78.723 12.2288 78.8672 11.8996 79.1556 11.6488C79.4503 11.3917 79.9174 11.2632 80.5569 11.2632H82.2404V10.8682C82.2404 10.4105 82.115 10.0625 81.8642 9.82427C81.6196 9.58601 81.2591 9.46689 80.7826 9.46689C80.4566 9.46689 80.1431 9.52331 79.8421 9.63617C79.5474 9.74903 79.2966 9.89951 79.0897 10.0876L78.8546 9.74903C79.0991 9.52958 79.3938 9.3603 79.7387 9.24117C80.0835 9.11577 80.444 9.05307 80.8202 9.05307ZM80.5569 13.652C80.9644 13.652 81.3093 13.558 81.5914 13.3699C81.8798 13.1818 82.0961 12.909 82.2404 12.5517V11.63H80.5663C80.0835 11.63 79.7324 11.7178 79.513 11.8933C79.2998 12.0689 79.1932 12.3103 79.1932 12.6175C79.1932 12.9373 79.3123 13.1912 79.5506 13.3793C79.7888 13.5611 80.1243 13.652 80.5569 13.652ZM89.0211 7.02164V14H88.5602V12.8432C88.3659 13.2257 88.0931 13.5204 87.742 13.7273C87.3909 13.9342 86.9928 14.0376 86.5476 14.0376C86.0899 14.0376 85.6761 13.931 85.3062 13.7179C84.9362 13.5047 84.6447 13.21 84.4315 12.8338C84.2246 12.4576 84.1212 12.0281 84.1212 11.5453C84.1212 11.0626 84.2246 10.6331 84.4315 10.2569C84.6447 9.87443 84.9362 9.57974 85.3062 9.37284C85.6761 9.15966 86.0899 9.05307 86.5476 9.05307C86.9865 9.05307 87.3784 9.15653 87.7232 9.36343C88.0743 9.57034 88.3502 9.85875 88.5508 10.2287V7.02164H89.0211ZM86.5758 13.6144C86.952 13.6144 87.2874 13.5266 87.5821 13.3511C87.8831 13.1755 88.1182 12.931 88.2875 12.6175C88.463 12.304 88.5508 11.9466 88.5508 11.5453C88.5508 11.1441 88.463 10.7867 88.2875 10.4732C88.1182 10.1597 87.8831 9.91518 87.5821 9.73963C87.2874 9.56407 86.952 9.47629 86.5758 9.47629C86.1996 9.47629 85.8611 9.56407 85.5601 9.73963C85.2654 9.91518 85.0303 10.1597 84.8547 10.4732C84.6855 10.7867 84.6008 11.1441 84.6008 11.5453C84.6008 11.9466 84.6855 12.304 84.8547 12.6175C85.0303 12.931 85.2654 13.1755 85.5601 13.3511C85.8611 13.5266 86.1996 13.6144 86.5758 13.6144ZM95.3377 14.0376C94.8737 14.0376 94.4537 13.931 94.0775 13.7179C93.7075 13.5047 93.416 13.21 93.2028 12.8338C92.9896 12.4513 92.8831 12.0219 92.8831 11.5453C92.8831 11.0688 92.9896 10.6425 93.2028 10.2663C93.416 9.88383 93.7075 9.58601 94.0775 9.37284C94.4537 9.15966 94.8737 9.05307 95.3377 9.05307C95.8017 9.05307 96.2186 9.15966 96.5885 9.37284C96.9647 9.58601 97.2594 9.88383 97.4726 10.2663C97.6858 10.6425 97.7924 11.0688 97.7924 11.5453C97.7924 12.0219 97.6858 12.4513 97.4726 12.8338C97.2594 13.21 96.9647 13.5047 96.5885 13.7179C96.2186 13.931 95.8017 14.0376 95.3377 14.0376ZM95.3377 13.6144C95.7139 13.6144 96.0493 13.5266 96.344 13.3511C96.645 13.1755 96.8801 12.931 97.0494 12.6175C97.2249 12.304 97.3127 11.9466 97.3127 11.5453C97.3127 11.1441 97.2249 10.7867 97.0494 10.4732C96.8801 10.1597 96.645 9.91518 96.344 9.73963C96.0493 9.56407 95.7139 9.47629 95.3377 9.47629C94.9615 9.47629 94.6229 9.56407 94.322 9.73963C94.0273 9.91518 93.7922 10.1597 93.6166 10.4732C93.4473 10.7867 93.3627 11.1441 93.3627 11.5453C93.3627 11.9466 93.4473 12.304 93.6166 12.6175C93.7922 12.931 94.0273 13.1755 94.322 13.3511C94.6229 13.5266 94.9615 13.6144 95.3377 13.6144ZM101.649 9.05307C102.264 9.05307 102.75 9.23177 103.107 9.58915C103.465 9.94653 103.643 10.4607 103.643 11.1315V14H103.173V11.1692C103.173 10.6174 103.032 10.1973 102.75 9.90891C102.474 9.6205 102.085 9.47629 101.584 9.47629C101.007 9.47629 100.552 9.64871 100.22 9.99355C99.8876 10.3384 99.7214 10.8024 99.7214 11.3855V14H99.2512V9.09069H99.7026V10.1534C99.8719 9.80859 100.123 9.53899 100.455 9.34462C100.794 9.15026 101.192 9.05307 101.649 9.05307ZM110.431 13.6896C110.311 13.8025 110.161 13.8903 109.979 13.953C109.804 14.0094 109.619 14.0376 109.424 14.0376C108.998 14.0376 108.669 13.9216 108.437 13.6896C108.205 13.4514 108.089 13.1222 108.089 12.7021V9.4951H107.186V9.09069H108.089V8.01855H108.559V9.09069H110.12V9.4951H108.559V12.6551C108.559 12.9749 108.634 13.2194 108.785 13.3887C108.941 13.5517 109.17 13.6332 109.471 13.6332C109.779 13.6332 110.032 13.5423 110.233 13.3605L110.431 13.6896ZM114.14 9.05307C114.755 9.05307 115.241 9.23177 115.598 9.58915C115.955 9.94653 116.134 10.4607 116.134 11.1315V14H115.664V11.1692C115.664 10.6174 115.523 10.1973 115.241 9.90891C114.965 9.6205 114.576 9.47629 114.074 9.47629C113.498 9.47629 113.043 9.64871 112.711 9.99355C112.378 10.3384 112.212 10.8024 112.212 11.3855V14H111.742V7.02164H112.212V10.1158C112.381 9.77724 112.632 9.51705 112.965 9.33522C113.297 9.14712 113.689 9.05307 114.14 9.05307ZM122.227 11.6582H118.004C118.016 12.0407 118.114 12.3824 118.295 12.6833C118.477 12.978 118.722 13.2069 119.029 13.3699C119.343 13.5329 119.694 13.6144 120.082 13.6144C120.402 13.6144 120.697 13.558 120.966 13.4451C121.242 13.326 121.471 13.1536 121.653 12.9279L121.926 13.2382C121.713 13.4953 121.443 13.6928 121.117 13.8307C120.797 13.9687 120.449 14.0376 120.073 14.0376C119.584 14.0376 119.148 13.931 118.766 13.7179C118.383 13.5047 118.082 13.21 117.863 12.8338C117.65 12.4576 117.543 12.0281 117.543 11.5453C117.543 11.0688 117.643 10.6425 117.844 10.2663C118.051 9.88383 118.333 9.58601 118.69 9.37284C119.048 9.15966 119.449 9.05307 119.894 9.05307C120.339 9.05307 120.738 9.15966 121.089 9.37284C121.446 9.57974 121.725 9.87129 121.926 10.2475C122.133 10.6237 122.236 11.05 122.236 11.5265L122.227 11.6582ZM119.894 9.46689C119.549 9.46689 119.239 9.54526 118.963 9.70201C118.687 9.85248 118.465 10.0688 118.295 10.3509C118.132 10.6268 118.038 10.9403 118.013 11.2914H121.775C121.756 10.9403 121.662 10.6268 121.493 10.3509C121.324 10.0751 121.101 9.85875 120.825 9.70201C120.55 9.54526 120.239 9.46689 119.894 9.46689Z" fill="white"/>
<path d="M49.672 28.732H44.772L43.806 31H41.93L46.34 21.2H48.132L52.556 31H50.652L49.672 28.732ZM49.07 27.304L47.222 23.02L45.388 27.304H49.07ZM57.7783 23.44C58.5063 23.44 59.155 23.5987 59.7243 23.916C60.303 24.2333 60.7557 24.6813 61.0823 25.26C61.409 25.8387 61.5723 26.506 61.5723 27.262C61.5723 28.018 61.409 28.69 61.0823 29.278C60.7557 29.8567 60.303 30.3047 59.7243 30.622C59.155 30.9393 58.5063 31.098 57.7783 31.098C56.7703 31.098 55.9723 30.762 55.3843 30.09V33.716H53.6343V23.524H55.3003V24.504C55.5897 24.1493 55.9443 23.8833 56.3643 23.706C56.7937 23.5287 57.265 23.44 57.7783 23.44ZM57.5823 29.6C58.2263 29.6 58.7537 29.3853 59.1643 28.956C59.5843 28.5267 59.7943 27.962 59.7943 27.262C59.7943 26.562 59.5843 25.9973 59.1643 25.568C58.7537 25.1387 58.2263 24.924 57.5823 24.924C57.1623 24.924 56.7843 25.022 56.4483 25.218C56.1123 25.4047 55.8463 25.6753 55.6503 26.03C55.4543 26.3847 55.3563 26.7953 55.3563 27.262C55.3563 27.7287 55.4543 28.1393 55.6503 28.494C55.8463 28.8487 56.1123 29.124 56.4483 29.32C56.7843 29.5067 57.1623 29.6 57.5823 29.6ZM67.376 23.44C68.104 23.44 68.7527 23.5987 69.322 23.916C69.9007 24.2333 70.3533 24.6813 70.68 25.26C71.0067 25.8387 71.17 26.506 71.17 27.262C71.17 28.018 71.0067 28.69 70.68 29.278C70.3533 29.8567 69.9007 30.3047 69.322 30.622C68.7527 30.9393 68.104 31.098 67.376 31.098C66.368 31.098 65.57 30.762 64.982 30.09V33.716H63.232V23.524H64.898V24.504C65.1873 24.1493 65.542 23.8833 65.962 23.706C66.3913 23.5287 66.8627 23.44 67.376 23.44ZM67.18 29.6C67.824 29.6 68.3513 29.3853 68.762 28.956C69.182 28.5267 69.392 27.962 69.392 27.262C69.392 26.562 69.182 25.9973 68.762 25.568C68.3513 25.1387 67.824 24.924 67.18 24.924C66.76 24.924 66.382 25.022 66.046 25.218C65.71 25.4047 65.444 25.6753 65.248 26.03C65.052 26.3847 64.954 26.7953 64.954 27.262C64.954 27.7287 65.052 28.1393 65.248 28.494C65.444 28.8487 65.71 29.124 66.046 29.32C66.382 29.5067 66.76 29.6 67.18 29.6ZM79.9048 31.14C79.1488 31.14 78.4161 31.0327 77.7068 30.818C77.0068 30.6033 76.4514 30.3187 76.0408 29.964L76.6708 28.55C77.0721 28.8673 77.5621 29.1287 78.1408 29.334C78.7288 29.53 79.3168 29.628 79.9048 29.628C80.6328 29.628 81.1741 29.5113 81.5288 29.278C81.8928 29.0447 82.0748 28.7367 82.0748 28.354C82.0748 28.074 81.9721 27.8453 81.7668 27.668C81.5708 27.4813 81.3188 27.3367 81.0108 27.234C80.7028 27.1313 80.2828 27.0147 79.7508 26.884C79.0041 26.7067 78.3974 26.5293 77.9308 26.352C77.4734 26.1747 77.0768 25.8993 76.7408 25.526C76.4141 25.1433 76.2508 24.63 76.2508 23.986C76.2508 23.4447 76.3954 22.9547 76.6848 22.516C76.9834 22.068 77.4268 21.7133 78.0148 21.452C78.6121 21.1907 79.3401 21.06 80.1988 21.06C80.7961 21.06 81.3841 21.1347 81.9628 21.284C82.5414 21.4333 83.0408 21.648 83.4608 21.928L82.8868 23.342C82.4574 23.09 82.0094 22.8987 81.5428 22.768C81.0761 22.6373 80.6234 22.572 80.1848 22.572C79.4661 22.572 78.9294 22.6933 78.5748 22.936C78.2294 23.1787 78.0568 23.5007 78.0568 23.902C78.0568 24.182 78.1548 24.4107 78.3508 24.588C78.5561 24.7653 78.8128 24.9053 79.1208 25.008C79.4288 25.1107 79.8488 25.2273 80.3808 25.358C81.1088 25.526 81.7061 25.7033 82.1728 25.89C82.6394 26.0673 83.0361 26.3427 83.3628 26.716C83.6988 27.0893 83.8668 27.5933 83.8668 28.228C83.8668 28.7693 83.7174 29.2593 83.4188 29.698C83.1294 30.1367 82.6861 30.4867 82.0888 30.748C81.4914 31.0093 80.7634 31.14 79.9048 31.14ZM89.9975 30.594C89.7921 30.762 89.5401 30.888 89.2415 30.972C88.9521 31.056 88.6441 31.098 88.3175 31.098C87.4961 31.098 86.8615 30.8833 86.4135 30.454C85.9655 30.0247 85.7415 29.3993 85.7415 28.578V24.98H84.5095V23.58H85.7415V21.872H87.4915V23.58H89.4935V24.98H87.4915V28.536C87.4915 28.9 87.5801 29.18 87.7575 29.376C87.9348 29.5627 88.1915 29.656 88.5275 29.656C88.9195 29.656 89.2461 29.5533 89.5075 29.348L89.9975 30.594ZM94.551 31.098C93.795 31.098 93.1136 30.9347 92.507 30.608C91.9003 30.2813 91.4243 29.8287 91.079 29.25C90.743 28.662 90.575 27.9993 90.575 27.262C90.575 26.5247 90.743 25.8667 91.079 25.288C91.4243 24.7093 91.9003 24.2567 92.507 23.93C93.1136 23.6033 93.795 23.44 94.551 23.44C95.3163 23.44 96.0023 23.6033 96.609 23.93C97.2156 24.2567 97.687 24.7093 98.023 25.288C98.3683 25.8667 98.541 26.5247 98.541 27.262C98.541 27.9993 98.3683 28.662 98.023 29.25C97.687 29.8287 97.2156 30.2813 96.609 30.608C96.0023 30.9347 95.3163 31.098 94.551 31.098ZM94.551 29.6C95.195 29.6 95.727 29.3853 96.147 28.956C96.567 28.5267 96.777 27.962 96.777 27.262C96.777 26.562 96.567 25.9973 96.147 25.568C95.727 25.1387 95.195 24.924 94.551 24.924C93.907 24.924 93.375 25.1387 92.955 25.568C92.5443 25.9973 92.339 26.562 92.339 27.262C92.339 27.962 92.5443 28.5267 92.955 28.956C93.375 29.3853 93.907 29.6 94.551 29.6ZM101.88 24.616C102.384 23.832 103.271 23.44 104.54 23.44V25.106C104.391 25.078 104.256 25.064 104.134 25.064C103.453 25.064 102.921 25.2647 102.538 25.666C102.156 26.058 101.964 26.6273 101.964 27.374V31H100.214V23.524H101.88V24.616ZM112.985 27.304C112.985 27.4253 112.975 27.598 112.957 27.822H107.091C107.193 28.3727 107.459 28.8113 107.889 29.138C108.327 29.4553 108.869 29.614 109.513 29.614C110.334 29.614 111.011 29.3433 111.543 28.802L112.481 29.88C112.145 30.2813 111.72 30.5847 111.207 30.79C110.693 30.9953 110.115 31.098 109.471 31.098C108.649 31.098 107.926 30.9347 107.301 30.608C106.675 30.2813 106.19 29.8287 105.845 29.25C105.509 28.662 105.341 27.9993 105.341 27.262C105.341 26.534 105.504 25.8807 105.831 25.302C106.167 24.714 106.629 24.2567 107.217 23.93C107.805 23.6033 108.467 23.44 109.205 23.44C109.933 23.44 110.581 23.6033 111.151 23.93C111.729 24.2473 112.177 24.7 112.495 25.288C112.821 25.8667 112.985 26.5387 112.985 27.304ZM109.205 24.84C108.645 24.84 108.169 25.008 107.777 25.344C107.394 25.6707 107.161 26.1093 107.077 26.66H111.319C111.244 26.1187 111.015 25.68 110.633 25.344C110.25 25.008 109.774 24.84 109.205 24.84Z" fill="white"/>
<defs>
<linearGradient id="paint0_linear" x1="-312.667" y1="201.667" x2="-325.231" y2="-6.48108" gradientUnits="userSpaceOnUse">
<stop stop-color="#667EEA"/>
<stop offset="1" stop-color="#56D680"/>
</linearGradient>
</defs>
</svg>
