<svg width="48" height="48" viewBox="0 0 48 48" fill="none" xmlns="http://www.w3.org/2000/svg">
<path d="M23.9838 0C18.4323 0.0037484 13.0537 1.93196 8.76431 5.4562C4.47487 8.98044 1.53986 13.8827 0.459178 19.3281C-0.621505 24.7734 0.218887 30.425 2.8374 35.3202C5.45591 40.2154 9.6905 44.0514 14.8199 46.1749C19.9492 48.2984 25.6561 48.578 30.9685 46.966C36.2808 45.3541 40.8702 41.9504 43.9547 37.3346C47.0391 32.7188 48.428 27.1765 47.8848 21.6516C47.3416 16.1267 44.8998 10.961 40.9754 7.0343C36.4647 2.53461 30.3551 0.00528526 23.9838 0ZM23.9838 9.29646C25.6724 9.2983 27.3227 9.79963 28.7271 10.7373C30.1211 11.6806 31.2075 13.0124 31.8514 14.5676C32.4954 16.1227 32.6685 17.8326 32.3494 19.4853C32.0159 21.1386 31.2012 22.6565 30.0075 23.8482C29.0162 24.8377 27.7962 25.5675 26.4556 25.973C25.1149 26.3786 23.6951 26.4474 22.3215 26.1734C20.948 25.8993 19.6631 25.2909 18.5808 24.4019C17.4984 23.513 16.6519 22.3709 16.1161 21.0768C15.5804 19.7826 15.3719 18.3764 15.5092 16.9825C15.6465 15.5886 16.1253 14.2501 16.9033 13.0854C17.6812 11.9206 18.7343 10.9657 19.9693 10.305C21.2043 9.64426 22.5832 9.2982 23.9838 9.29742V9.29646ZM23.9838 42.6092C21.2803 42.6082 18.6097 42.0166 16.1587 40.8757C13.7077 39.7349 11.5356 38.0723 9.79419 36.0043C10.707 34.261 12.0785 32.8001 13.7609 31.7793C15.4433 30.7585 17.3725 30.2166 19.3404 30.212C19.571 30.214 19.8001 30.2496 20.0205 30.3177C22.5872 31.209 25.3794 31.209 27.9462 30.3177C28.1665 30.2496 28.3956 30.214 28.6263 30.212C30.5941 30.2166 32.5234 30.7585 34.2057 31.7793C35.8881 32.8001 37.2596 34.261 38.1724 36.0043C36.4313 38.0724 34.2593 39.735 31.8085 40.8761C29.3577 42.0171 26.6872 42.6089 23.9838 42.6102V42.6092Z" fill="#707070"/>
</svg>
