<svg width="140" height="40" viewBox="0 0 140 40" fill="none" xmlns="http://www.w3.org/2000/svg">
<path d="M134.563 40H5.40612C2.42343 40 0 37.7226 0 34.9197V5.08029C0 2.27737 2.42343 0 5.40612 0H134.594C137.577 0 140 2.27737 140 5.08029V34.9197C139.969 37.7226 137.577 40 134.563 40Z" fill="url(#paint0_linear)"/>
<path d="M49.8498 10.7365H50.3106V13.2006C50.0222 13.4765 49.6711 13.6865 49.2573 13.8307C48.8497 13.9749 48.4171 14.047 47.9594 14.047C47.3074 14.047 46.718 13.9028 46.1913 13.6144C45.6709 13.326 45.2602 12.9279 44.9593 12.42C44.6646 11.9121 44.5173 11.3416 44.5173 10.7083C44.5173 10.0751 44.6646 9.50451 44.9593 8.99665C45.2602 8.48879 45.6709 8.09065 46.1913 7.80224C46.718 7.51382 47.3105 7.36962 47.9688 7.36962C48.4516 7.36962 48.8936 7.44799 49.2949 7.60474C49.7024 7.75521 50.0504 7.97779 50.3388 8.27248L50.0379 8.59224C49.762 8.31637 49.4516 8.11886 49.1068 7.99974C48.7682 7.87434 48.392 7.81164 47.9782 7.81164C47.4139 7.81164 46.9029 7.93704 46.4452 8.18783C45.9938 8.43863 45.6396 8.78661 45.3825 9.23177C45.1254 9.67066 44.9969 10.1628 44.9969 10.7083C44.9969 11.2475 45.1254 11.7397 45.3825 12.1849C45.6458 12.6238 46.0032 12.9717 46.4547 13.2288C46.9061 13.4796 47.4139 13.605 47.9782 13.605C48.7306 13.605 49.3545 13.4044 49.8498 13.0031V10.7365ZM56.4185 11.6582H52.1957C52.2082 12.0407 52.3054 12.3824 52.4872 12.6833C52.6691 12.978 52.9136 13.2069 53.2208 13.3699C53.5343 13.5329 53.8854 13.6144 54.2742 13.6144C54.5939 13.6144 54.8886 13.558 55.1582 13.4451C55.4341 13.326 55.6629 13.1536 55.8448 12.9279L56.1175 13.2382C55.9043 13.4953 55.6347 13.6928 55.3087 13.8307C54.9889 13.9687 54.6409 14.0376 54.2648 14.0376C53.7757 14.0376 53.3399 13.931 52.9575 13.7179C52.575 13.5047 52.2741 13.21 52.0546 12.8338C51.8414 12.4576 51.7349 12.0281 51.7349 11.5453C51.7349 11.0688 51.8352 10.6425 52.0358 10.2663C52.2427 9.88383 52.5249 9.58601 52.8822 9.37284C53.2396 9.15966 53.6409 9.05307 54.0861 9.05307C54.5312 9.05307 54.9294 9.15966 55.2805 9.37284C55.6379 9.57974 55.9169 9.87129 56.1175 10.2475C56.3244 10.6237 56.4279 11.05 56.4279 11.5265L56.4185 11.6582ZM54.0861 9.46689C53.7412 9.46689 53.4309 9.54526 53.155 9.70201C52.8791 9.85248 52.6565 10.0688 52.4872 10.3509C52.3242 10.6268 52.2302 10.9403 52.2051 11.2914H55.967C55.9482 10.9403 55.8542 10.6268 55.6849 10.3509C55.5156 10.0751 55.293 9.85875 55.0171 9.70201C54.7413 9.54526 54.4309 9.46689 54.0861 9.46689ZM60.3184 13.6896C60.1993 13.8025 60.0488 13.8903 59.867 13.953C59.6914 14.0094 59.5065 14.0376 59.3121 14.0376C58.8858 14.0376 58.5566 13.9216 58.3246 13.6896C58.0926 13.4514 57.9766 13.1222 57.9766 12.7021V9.4951H57.0738V9.09069H57.9766V8.01855H58.4469V9.09069H60.0081V9.4951H58.4469V12.6551C58.4469 12.9749 58.5221 13.2194 58.6726 13.3887C58.8293 13.5517 59.0582 13.6332 59.3591 13.6332C59.6664 13.6332 59.9203 13.5423 60.1209 13.3605L60.3184 13.6896ZM64.0453 9.09069H64.5155V14H64.0453V9.09069ZM64.2804 7.89628C64.1738 7.89628 64.0829 7.8618 64.0077 7.79283C63.9324 7.71759 63.8948 7.62668 63.8948 7.52009C63.8948 7.4135 63.9324 7.32259 64.0077 7.24735C64.0829 7.17211 64.1738 7.1345 64.2804 7.1345C64.387 7.1345 64.4779 7.17211 64.5532 7.24735C64.6284 7.31632 64.666 7.4041 64.666 7.51069C64.666 7.61728 64.6284 7.70819 64.5532 7.78343C64.4779 7.85866 64.387 7.89628 64.2804 7.89628ZM68.9334 13.6896C68.8142 13.8025 68.6638 13.8903 68.4819 13.953C68.3064 14.0094 68.1214 14.0376 67.9271 14.0376C67.5007 14.0376 67.1715 13.9216 66.9396 13.6896C66.7076 13.4514 66.5916 13.1222 66.5916 12.7021V9.4951H65.6887V9.09069H66.5916V8.01855H67.0618V9.09069H68.623V9.4951H67.0618V12.6551C67.0618 12.9749 67.1371 13.2194 67.2875 13.3887C67.4443 13.5517 67.6731 13.6332 67.9741 13.6332C68.2813 13.6332 68.5352 13.5423 68.7359 13.3605L68.9334 13.6896ZM74.5788 14.0376C74.1149 14.0376 73.6948 13.931 73.3186 13.7179C72.9487 13.5047 72.6571 13.21 72.4439 12.8338C72.2308 12.4513 72.1242 12.0219 72.1242 11.5453C72.1242 11.0688 72.2308 10.6425 72.4439 10.2663C72.6571 9.88383 72.9487 9.58601 73.3186 9.37284C73.6948 9.15966 74.1149 9.05307 74.5788 9.05307C75.0428 9.05307 75.4597 9.15966 75.8297 9.37284C76.2059 9.58601 76.5005 9.88383 76.7137 10.2663C76.9269 10.6425 77.0335 11.0688 77.0335 11.5453C77.0335 12.0219 76.9269 12.4513 76.7137 12.8338C76.5005 13.21 76.2059 13.5047 75.8297 13.7179C75.4597 13.931 75.0428 14.0376 74.5788 14.0376ZM74.5788 13.6144C74.955 13.6144 75.2905 13.5266 75.5851 13.3511C75.8861 13.1755 76.1212 12.931 76.2905 12.6175C76.4661 12.304 76.5538 11.9466 76.5538 11.5453C76.5538 11.1441 76.4661 10.7867 76.2905 10.4732C76.1212 10.1597 75.8861 9.91518 75.5851 9.73963C75.2905 9.56407 74.955 9.47629 74.5788 9.47629C74.2026 9.47629 73.8641 9.56407 73.5631 9.73963C73.2684 9.91518 73.0333 10.1597 72.8577 10.4732C72.6885 10.7867 72.6038 11.1441 72.6038 11.5453C72.6038 11.9466 72.6885 12.304 72.8577 12.6175C73.0333 12.931 73.2684 13.1755 73.5631 13.3511C73.8641 13.5266 74.2026 13.6144 74.5788 13.6144ZM80.8906 9.05307C81.505 9.05307 81.9909 9.23177 82.3483 9.58915C82.7057 9.94653 82.8844 10.4607 82.8844 11.1315V14H82.4141V11.1692C82.4141 10.6174 82.2731 10.1973 81.9909 9.90891C81.715 9.6205 81.3263 9.47629 80.8247 9.47629C80.2479 9.47629 79.7933 9.64871 79.461 9.99355C79.1287 10.3384 78.9626 10.8024 78.9626 11.3855V14H78.4923V9.09069H78.9438V10.1534C79.113 9.80859 79.3638 9.53899 79.6961 9.34462C80.0347 9.15026 80.4329 9.05307 80.8906 9.05307Z" fill="white"/>
<path d="M52.008 25.988H53.73V29.894C53.226 30.2953 52.638 30.6033 51.966 30.818C51.294 31.0327 50.6033 31.14 49.894 31.14C48.8953 31.14 47.9947 30.9253 47.192 30.496C46.3893 30.0573 45.7593 29.4553 45.302 28.69C44.8447 27.9247 44.616 27.0613 44.616 26.1C44.616 25.1387 44.8447 24.2753 45.302 23.51C45.7593 22.7447 46.3893 22.1473 47.192 21.718C48.004 21.2793 48.914 21.06 49.922 21.06C50.7433 21.06 51.49 21.1953 52.162 21.466C52.834 21.7367 53.3987 22.1333 53.856 22.656L52.708 23.776C51.9613 23.0293 51.0607 22.656 50.006 22.656C49.3153 22.656 48.6993 22.8007 48.158 23.09C47.626 23.3793 47.206 23.7853 46.898 24.308C46.5993 24.8307 46.45 25.428 46.45 26.1C46.45 26.7533 46.5993 27.3413 46.898 27.864C47.206 28.3867 47.626 28.7973 48.158 29.096C48.6993 29.3947 49.3107 29.544 49.992 29.544C50.7573 29.544 51.4293 29.376 52.008 29.04V25.988ZM59.3225 31.098C58.5665 31.098 57.8851 30.9347 57.2785 30.608C56.6718 30.2813 56.1958 29.8287 55.8505 29.25C55.5145 28.662 55.3465 27.9993 55.3465 27.262C55.3465 26.5247 55.5145 25.8667 55.8505 25.288C56.1958 24.7093 56.6718 24.2567 57.2785 23.93C57.8851 23.6033 58.5665 23.44 59.3225 23.44C60.0878 23.44 60.7738 23.6033 61.3805 23.93C61.9871 24.2567 62.4585 24.7093 62.7945 25.288C63.1398 25.8667 63.3125 26.5247 63.3125 27.262C63.3125 27.9993 63.1398 28.662 62.7945 29.25C62.4585 29.8287 61.9871 30.2813 61.3805 30.608C60.7738 30.9347 60.0878 31.098 59.3225 31.098ZM59.3225 29.6C59.9665 29.6 60.4985 29.3853 60.9185 28.956C61.3385 28.5267 61.5485 27.962 61.5485 27.262C61.5485 26.562 61.3385 25.9973 60.9185 25.568C60.4985 25.1387 59.9665 24.924 59.3225 24.924C58.6785 24.924 58.1465 25.1387 57.7265 25.568C57.3158 25.9973 57.1105 26.562 57.1105 27.262C57.1105 27.962 57.3158 28.5267 57.7265 28.956C58.1465 29.3853 58.6785 29.6 59.3225 29.6ZM68.3459 31.098C67.5899 31.098 66.9086 30.9347 66.3019 30.608C65.6952 30.2813 65.2192 29.8287 64.8739 29.25C64.5379 28.662 64.3699 27.9993 64.3699 27.262C64.3699 26.5247 64.5379 25.8667 64.8739 25.288C65.2192 24.7093 65.6952 24.2567 66.3019 23.93C66.9086 23.6033 67.5899 23.44 68.3459 23.44C69.1112 23.44 69.7972 23.6033 70.4039 23.93C71.0106 24.2567 71.4819 24.7093 71.8179 25.288C72.1632 25.8667 72.3359 26.5247 72.3359 27.262C72.3359 27.9993 72.1632 28.662 71.8179 29.25C71.4819 29.8287 71.0106 30.2813 70.4039 30.608C69.7972 30.9347 69.1112 31.098 68.3459 31.098ZM68.3459 29.6C68.9899 29.6 69.5219 29.3853 69.9419 28.956C70.3619 28.5267 70.5719 27.962 70.5719 27.262C70.5719 26.562 70.3619 25.9973 69.9419 25.568C69.5219 25.1387 68.9899 24.924 68.3459 24.924C67.7019 24.924 67.1699 25.1387 66.7499 25.568C66.3392 25.9973 66.1339 26.562 66.1339 27.262C66.1339 27.962 66.3392 28.5267 66.7499 28.956C67.1699 29.3853 67.7019 29.6 68.3459 29.6ZM81.4293 23.524V29.866C81.4293 32.498 80.0853 33.814 77.3973 33.814C76.6787 33.814 75.9973 33.7207 75.3533 33.534C74.7093 33.3567 74.1773 33.0953 73.7573 32.75L74.5413 31.434C74.868 31.7047 75.2787 31.9193 75.7733 32.078C76.2773 32.246 76.786 32.33 77.2993 32.33C78.1207 32.33 78.7227 32.1433 79.1053 31.77C79.488 31.3967 79.6793 30.8273 79.6793 30.062V29.67C79.3807 29.9967 79.0167 30.244 78.5873 30.412C78.158 30.58 77.6867 30.664 77.1733 30.664C76.464 30.664 75.82 30.5147 75.2413 30.216C74.672 29.908 74.2193 29.4787 73.8833 28.928C73.5567 28.3773 73.3933 27.7473 73.3933 27.038C73.3933 26.3287 73.5567 25.7033 73.8833 25.162C74.2193 24.6113 74.672 24.1867 75.2413 23.888C75.82 23.5893 76.464 23.44 77.1733 23.44C77.7147 23.44 78.2047 23.5287 78.6433 23.706C79.0913 23.8833 79.4647 24.154 79.7633 24.518V23.524H81.4293ZM77.4393 29.18C78.102 29.18 78.6433 28.984 79.0633 28.592C79.4927 28.1907 79.7073 27.6727 79.7073 27.038C79.7073 26.4127 79.4927 25.904 79.0633 25.512C78.6433 25.12 78.102 24.924 77.4393 24.924C76.7673 24.924 76.2167 25.12 75.7873 25.512C75.3673 25.904 75.1573 26.4127 75.1573 27.038C75.1573 27.6727 75.3673 28.1907 75.7873 28.592C76.2167 28.984 76.7673 29.18 77.4393 29.18ZM83.73 20.612H85.48V31H83.73V20.612ZM94.8049 27.304C94.8049 27.4253 94.7956 27.598 94.7769 27.822H88.9109C89.0136 28.3727 89.2796 28.8113 89.7089 29.138C90.1476 29.4553 90.6889 29.614 91.3329 29.614C92.1542 29.614 92.8309 29.3433 93.3629 28.802L94.3009 29.88C93.9649 30.2813 93.5402 30.5847 93.0269 30.79C92.5136 30.9953 91.9349 31.098 91.2909 31.098C90.4696 31.098 89.7462 30.9347 89.1209 30.608C88.4956 30.2813 88.0102 29.8287 87.6649 29.25C87.3289 28.662 87.1609 27.9993 87.1609 27.262C87.1609 26.534 87.3242 25.8807 87.6509 25.302C87.9869 24.714 88.4489 24.2567 89.0369 23.93C89.6249 23.6033 90.2876 23.44 91.0249 23.44C91.7529 23.44 92.4016 23.6033 92.9709 23.93C93.5496 24.2473 93.9976 24.7 94.3149 25.288C94.6416 25.8667 94.8049 26.5387 94.8049 27.304ZM91.0249 24.84C90.4649 24.84 89.9889 25.008 89.5969 25.344C89.2142 25.6707 88.9809 26.1093 88.8969 26.66H93.1389C93.0642 26.1187 92.8356 25.68 92.4529 25.344C92.0702 25.008 91.5942 24.84 91.0249 24.84ZM104.555 21.2C105.404 21.2 106.142 21.34 106.767 21.62C107.402 21.9 107.887 22.3013 108.223 22.824C108.559 23.3467 108.727 23.9673 108.727 24.686C108.727 25.3953 108.559 26.016 108.223 26.548C107.887 27.0707 107.402 27.472 106.767 27.752C106.142 28.032 105.404 28.172 104.555 28.172H102.343V31H100.523V21.2H104.555ZM104.471 26.632C105.264 26.632 105.866 26.464 106.277 26.128C106.688 25.792 106.893 25.3113 106.893 24.686C106.893 24.0607 106.688 23.58 106.277 23.244C105.866 22.908 105.264 22.74 104.471 22.74H102.343V26.632H104.471ZM110.513 20.612H112.263V31H110.513V20.612ZM117.416 23.44C118.517 23.44 119.357 23.706 119.936 24.238C120.524 24.7607 120.818 25.554 120.818 26.618V31H119.166V30.09C118.951 30.4167 118.643 30.6687 118.242 30.846C117.85 31.014 117.374 31.098 116.814 31.098C116.254 31.098 115.764 31.0047 115.344 30.818C114.924 30.622 114.597 30.356 114.364 30.02C114.14 29.6747 114.028 29.2873 114.028 28.858C114.028 28.186 114.275 27.6493 114.77 27.248C115.274 26.8373 116.063 26.632 117.136 26.632H119.068V26.52C119.068 25.9973 118.909 25.596 118.592 25.316C118.284 25.036 117.822 24.896 117.206 24.896C116.786 24.896 116.371 24.9613 115.96 25.092C115.559 25.2227 115.218 25.4047 114.938 25.638L114.252 24.364C114.644 24.0653 115.115 23.8367 115.666 23.678C116.217 23.5193 116.8 23.44 117.416 23.44ZM117.178 29.824C117.617 29.824 118.004 29.726 118.34 29.53C118.685 29.3247 118.928 29.0353 119.068 28.662V27.794H117.262C116.254 27.794 115.75 28.1253 115.75 28.788C115.75 29.1053 115.876 29.3573 116.128 29.544C116.38 29.7307 116.73 29.824 117.178 29.824ZM129.927 23.524L126.427 31.602C126.101 32.414 125.704 32.9833 125.237 33.31C124.771 33.646 124.206 33.814 123.543 33.814C123.17 33.814 122.801 33.7533 122.437 33.632C122.073 33.5107 121.775 33.3427 121.541 33.128L122.241 31.84C122.409 31.9987 122.605 32.1247 122.829 32.218C123.063 32.3113 123.296 32.358 123.529 32.358C123.837 32.358 124.089 32.2787 124.285 32.12C124.491 31.9613 124.677 31.6953 124.845 31.322L124.971 31.028L121.709 23.524H123.529L125.881 29.054L128.247 23.524H129.927Z" fill="white"/>
<path d="M35.5095 18.4392L30.2359 15.3945L25.9127 19.5771L29.8679 23.4214L35.5095 20.1614C35.8161 19.9769 36.0001 19.6694 36.0001 19.3003C36.0001 18.962 35.8161 18.6237 35.5095 18.4392Z" fill="white"/>
<path d="M29.347 14.9029L23.5521 11.5507L10.8586 5L25.2078 18.9009L29.347 14.9029Z" fill="white"/>
<path d="M11.0734 33.9996L23.5829 27.0799L28.9791 23.943L25.2079 20.2832L11.0734 33.9996Z" fill="white"/>
<path d="M10 5.58594V33.6646L24.4718 19.6099L10 5.58594Z" fill="white"/>
<defs>
<linearGradient id="paint0_linear" x1="-312.667" y1="201.667" x2="-325.231" y2="-6.48108" gradientUnits="userSpaceOnUse">
<stop stop-color="#667EEA"/>
<stop offset="1" stop-color="#56D680"/>
</linearGradient>
</defs>
</svg>
